<?xml version="1.0" encoding="UTF-8" standalone="no"?>
<svg width="301px" height="162px" viewBox="0 0 301 162" version="1.1" xmlns="http://www.w3.org/2000/svg" xmlns:xlink="http://www.w3.org/1999/xlink">
    <!-- Generator: Sketch 42 (36781) - http://www.bohemiancoding.com/sketch -->
    <title>Group 7</title>
    <desc>Created with Sketch.</desc>
    <defs>
        <path d="M0.536132812,4.25002553 C0.536132812,2.04087243 2.32390255,0.25 4.54073304,0.25 L43.9807513,0.25 C46.192431,0.25 47.9853516,2.04642476 47.9853516,4.25002553 L47.9853516,36.2499745 C47.9853516,38.4591276 46.1975818,40.25 43.9807513,40.25 L4.54073304,40.25 C2.32905341,40.25 0.536132812,38.4535752 0.536132812,36.2499745 L0.536132812,4.25002553 Z" id="path-1"></path>
        <mask id="mask-2" maskContentUnits="userSpaceOnUse" maskUnits="objectBoundingBox" x="0" y="0" width="47.4492188" height="40" fill="white">
            <use xlink:href="#path-1"></use>
        </mask>
    </defs>
    <g id="icons" stroke="none" stroke-width="1" fill="none" fill-rule="evenodd">
        <g id="Task" transform="translate(-93.000000, -40.000000)">
            <g id="Group-7" transform="translate(94.000000, 40.000000)">
                <g id="Group" transform="translate(152.500000, 90.500000) scale(-1, -1) translate(-152.500000, -90.500000) translate(111.000000, 48.000000)">
                    <path d="M12.1276376,10.9102063 L12.1276376,76 C12.1276376,76 11,84 19,84 L71.9785475,84 C75.8430941,84 78.8952887,80.8744993 78.9258607,77.0001401 C78.9258607,77.0001401 78.7943042,83.1965311 78.9759282,74.1153345 C79.1575521,65.034138 78.9759282,10.7283222 78.9759282,10.7283222 C78.9759282,10.7283222 79.5,0.09375 71,0.09375 C62.5,0.09375 60.3626803,10.9102063 60.3626803,10.9102063 L12.1276376,10.9102063 Z" id="Path-18" fill="#9BD25F"></path>
                    <path d="M32.9373064,31.5 L62.6308986,31.5" id="Line" stroke="#FFFFFF" stroke-width="3" stroke-linecap="round" stroke-linejoin="round" transform="translate(47.779347, 31.500000) scale(-1, -1) translate(-47.779347, -31.500000) "></path>
                    <path d="M39.4775824,42.5 L62.6320083,42.5" id="Line" stroke="#FFFFFF" stroke-width="3" stroke-linecap="round" stroke-linejoin="round" transform="translate(51.048578, 42.500000) scale(-1, -1) translate(-51.048578, -42.500000) "></path>
                    <path d="M38.7508347,53.5 L62.6948802,53.5" id="Line" stroke="#FFFFFF" stroke-width="3" stroke-linecap="round" stroke-linejoin="round" transform="translate(50.685330, 53.500000) scale(-1, -1) translate(-50.685330, -53.500000) "></path>
                    <path d="M31.1206994,63.5 L62.6217552,63.5" id="Line" stroke="#FFFFFF" stroke-width="3" stroke-linecap="round" stroke-linejoin="round" transform="translate(46.871227, 63.500000) scale(-1, -1) translate(-46.871227, -63.500000) "></path>
                    <path d="M16.1276376,10.9102063 L16.1276376,75.5 C16.1276376,75.5 15,84.8311465 23.5,84.8311465 L75.9996284,84.8311465 C79.8658269,84.8311465 82.9936124,81.6916781 82.9857538,77.8292444 L82.9759282,73 L82.9759282,10.7283222 C82.9759282,10.7283222 82.3525641,0.09375 72,0.09375 C61.6474359,0.09375 61.3626803,10.9102063 61.3626803,10.9102063 L16.1276376,10.9102063 Z" id="Path-18" stroke="#3E486F" stroke-width="3" stroke-linecap="round" stroke-linejoin="round"></path>
                    <path d="M16.3092615,10.9102063 L0.144731571,10.9102063 C0.144731571,10.9102063 0.871227297,0.376018296 10.4972957,0.376018296 C20.123364,0.376018296 71,0.09375 71,0.09375" id="Path-19" stroke="#3E486F" stroke-width="3" stroke-linecap="round" stroke-linejoin="round"></path>
                </g>
                <path d="M129,44.022534 L133.789116,44.022534 L133.789116,40.1313776 C133.789116,40.1313776 133.789116,37.4375 137.380952,37.4375 L151.44898,37.4375 C151.44898,37.4375 155.340136,37.4375 155.340136,40.1313776 L155.340136,44.022534 L160.428571,44.022534 L160.428571,50.6143672 C160.428571,50.6143672 160.428571,52.1041667 158.931973,52.1041667 L130.496599,52.1041667 C130.496599,52.1041667 129,52.1041667 129,50.9068878 L129,44.022534 Z" id="Path-45" stroke="#3E486F" stroke-width="3" stroke-linecap="round" stroke-linejoin="round" fill="#FFFFFF"></path>
                <path d="M141.5,44.5 L148.5,44.5" id="Line" stroke="#3E486F" stroke-width="3" stroke-linecap="round" stroke-linejoin="round"></path>
                <circle id="Oval-7" stroke="#3E486F" stroke-width="3" fill="#FFFFFF" cx="111" cy="101.958984" r="15"></circle>
                <polyline id="Path-46" stroke="#3E486F" stroke-width="3" stroke-linecap="round" stroke-linejoin="round" points="105.5 101.875 109.252051 106 118.006836 98.5"></polyline>
                <g id="Group-2" transform="translate(192.000000, 115.958984) rotate(-10.000000) translate(-192.000000, -115.958984) translate(167.000000, 95.458984)">
                    <path d="M2.40806138,4.71388875 C2.40806138,2.50473565 4.20557556,0.71386322 6.41136974,0.71386322 L42.8539718,0.71386322 C45.0649379,0.71386322 46.8572801,2.51028798 46.8572801,4.71388875 L46.8572801,36.7138377 C46.8572801,38.9229908 45.0597659,40.7138632 42.8539718,40.7138632 L6.41136974,40.7138632 C4.20040358,40.7138632 2.40806138,38.9174385 2.40806138,36.7138377 L2.40806138,4.71388875 Z" id="Rectangle-10" fill="#FFFFFF"></path>
                    <path d="M5.53613281,4.25002553 C5.53613281,2.04087243 7.33364699,0.25 9.53944118,0.25 L45.9820432,0.25 C48.1930094,0.25 49.9853516,2.04642476 49.9853516,4.25002553 L49.9853516,36.2499745 C49.9853516,38.4591276 48.1878374,40.25 45.9820432,40.25 L9.53944118,40.25 C7.32847502,40.25 5.53613281,38.4535752 5.53613281,36.2499745 L5.53613281,4.25002553 Z" id="Rectangle-10" fill="#FFD524"></path>
                    <use id="Rectangle-10" stroke="#3E486F" mask="url(#mask-2)" stroke-width="6" xlink:href="#path-1"></use>
                    <circle id="Oval-3" stroke="#3E486F" stroke-width="2" cx="12.2309089" cy="19.2309089" r="2.23090886"></circle>
                    <circle id="Oval-3" stroke="#3E486F" stroke-width="2" cx="24.2309089" cy="19.2309089" r="2.23090886"></circle>
                    <circle id="Oval-3" stroke="#3E486F" stroke-width="2" cx="36.2309089" cy="19.2309089" r="2.23090886"></circle>
                    <circle id="Oval-3" stroke="#3E486F" stroke-width="2" cx="12.2309089" cy="30.2309089" r="2.23090886"></circle>
                    <circle id="Oval-3" stroke="#3E486F" stroke-width="2" cx="24.2309089" cy="30.2309089" r="2.23090886"></circle>
                    <circle id="Oval-3" stroke="#3E486F" stroke-width="2" cx="36.2309089" cy="30.2309089" r="2.23090886"></circle>
                    <path d="M2.5,10.5 L45.5116263,10.5" id="Line" stroke="#3E486F" stroke-width="3" stroke-linecap="square"></path>
                </g>
                <g id="Group-3" transform="translate(82.683390, 40.747201) rotate(-16.000000) translate(-82.683390, -40.747201) translate(73.683390, 35.747201)" stroke="#F8D476" stroke-width="2" stroke-linecap="round" stroke-linejoin="round">
                    <polyline id="Path-47" points="0.384615385 9.61538462 4.61538462 5.19230769 10.3846154 7.69230769 16.9230769 0.769230769"></polyline>
                    <path d="M16.5384615,0.769230769 L11.9230769,0.769230769" id="Line"></path>
                    <path d="M16.9230769,1.10576923 L16.9230769,5.81730769" id="Line"></path>
                </g>
                <g id="Group-5" transform="translate(69.000000, 118.000000)" stroke-linecap="round" stroke="#76A6DC" stroke-width="2" stroke-linejoin="round">
                    <g id="Group-4" transform="translate(6.000000, 8.846154) rotate(-23.000000) translate(-6.000000, -8.846154) translate(2.400000, 3.076923)">
                        <path d="M5.56234004,0.690035809 L0.865231785,3.00059163" id="Line"></path>
                        <path d="M5.62457229,0.707642941 L6.49188436,5.75621621" id="Line"></path>
                        <path d="M5.41693877,0.685027892 L0.583061233,10.8534336" id="Line"></path>
                    </g>
                    <g id="Group-4" transform="translate(12.128318, 9.610558) scale(1, -1) rotate(-23.000000) translate(-12.128318, -9.610558) translate(7.628318, 1.110558)">
                        <path d="M7.96234004,0.690035809 L3.26523178,3.00059163" id="Line"></path>
                        <path d="M8.02457229,0.707642941 L8.89188436,5.75621621" id="Line"></path>
                        <path d="M7.81693877,0.685027892 L0.786732065,16.5941997" id="Line"></path>
                    </g>
                </g>
                <g id="Group-6" transform="translate(192.000000, 65.000000)" stroke="#EE8494" stroke-width="2">
                    <circle id="Oval-8" cx="9" cy="9" r="9"></circle>
                    <polyline id="Path-48" stroke-linecap="round" stroke-linejoin="round" points="6.5 8.5 9 10.5 13 6.5"></polyline>
                </g>
                <g id="Group-4" transform="translate(13.462036, 0.565308)">
                    <ellipse id="Oval" stroke="#76A7DD" stroke-width="2" cx="123.999577" cy="24.7598191" rx="4.91803279" ry="4.86486486"></ellipse>
                    <ellipse id="Oval" stroke="#EF8494" stroke-width="2" cx="49.7372823" cy="93.678738" rx="4.09836066" ry="4.05405405"></ellipse>
                    <ellipse id="Oval" stroke="#F9D476" stroke-width="2" cx="229.245479" cy="80.705765" rx="4.09836066" ry="4.05405405"></ellipse>
                    <path d="M165.856463,3.16540981 C165.109222,1.68579935 165.67683,1.14364143 167.127495,1.95628383 L169.059785,3.03872616 L171.29028,1.87456925 C172.759255,1.10787035 173.277888,1.65389952 172.455165,3.08289334 L171.230712,5.20965367 L172.455165,7.33641399 C173.280792,8.77045186 172.79116,9.24893821 171.361742,8.40526197 L169.059785,7.04659233 L167.034782,8.32940833 C165.636774,9.21503057 165.105399,8.74107729 165.856463,7.25389752 L166.888857,5.20965367 L165.856463,3.16540981 Z" id="Rectangle-4" fill="#EE8494" transform="translate(169.185819, 5.174487) rotate(45.000000) translate(-169.185819, -5.174487) "></path>
                    <path d="M246.496156,52.3014166 C245.748916,50.8218061 246.316523,50.2796482 247.767188,51.0922906 L249.699479,52.1747329 L251.929973,51.010576 C253.398949,50.2438771 253.917582,50.7899063 253.094859,52.2189001 L251.870406,54.3456605 L253.094859,56.4724208 C253.920486,57.9064587 253.430854,58.384945 252.001436,57.5412688 L249.699479,56.1825991 L247.674476,57.4654151 C246.276467,58.3510374 245.745093,57.8770841 246.496156,56.3899043 L247.528551,54.3456605 L246.496156,52.3014166 Z" id="Rectangle-4" fill="#76A6DC" transform="translate(249.825513, 54.310494) rotate(45.000000) translate(-249.825513, -54.310494) "></path>
                    <path d="M1.25526305,116.892574 C0.522963874,115.442549 1.07564987,114.909231 2.49233375,115.702838 L3.1045505,116.045793 L3.91219519,115.624261 C5.34832308,114.874706 5.86034981,115.399857 5.04746445,116.811763 L4.61743757,117.55868 L5.04746445,118.305597 C5.85660044,119.710991 5.37772534,120.180497 3.98219113,119.35682 L3.1045505,118.838815 L2.41557236,119.275275 C1.04245205,120.145131 0.520079508,119.680522 1.25526305,118.224786 L1.59166343,117.55868 L1.25526305,116.892574 Z" id="Rectangle-4" fill="#F8D476" transform="translate(3.181509, 117.522889) rotate(45.000000) translate(-3.181509, -117.522889) "></path>
                    <path d="M20.255263,65.8925741 C19.5229639,64.4425493 20.0756499,63.9092311 21.4923338,64.7028378 L22.1045505,65.0457931 L22.9121952,64.624261 C24.3483231,63.8747061 24.8603498,64.3998567 24.0474645,65.8117633 L23.6174376,66.5586802 L24.0474645,67.3055971 C24.8566004,68.7109914 24.3777253,69.1804971 22.9821911,68.3568197 L22.1045505,67.8388154 L21.4155724,68.2752751 C20.042452,69.145131 19.5200795,68.6805224 20.255263,67.2247863 L20.5916634,66.5586802 L20.255263,65.8925741 Z" id="Rectangle-4" fill="#76A6DC" transform="translate(22.181509, 66.522889) rotate(45.000000) translate(-22.181509, -66.522889) "></path>
                    <path d="M256.255263,114.892574 C255.522964,113.442549 256.07565,112.909231 257.492334,113.702838 L258.10455,114.045793 L258.912195,113.624261 C260.348323,112.874706 260.86035,113.399857 260.047464,114.811763 L259.617438,115.55868 L260.047464,116.305597 C260.8566,117.710991 260.377725,118.180497 258.982191,117.35682 L258.10455,116.838815 L257.415572,117.275275 C256.042452,118.145131 255.52008,117.680522 256.255263,116.224786 L256.591663,115.55868 L256.255263,114.892574 Z" id="Rectangle-4" fill="#EE8494" transform="translate(258.181509, 115.522889) rotate(45.000000) translate(-258.181509, -115.522889) "></path>
                </g>
                <g id="Group-4" transform="translate(0.000000, 139.000000)" stroke="#979797" stroke-width="2" stroke-linecap="round" stroke-linejoin="round">
                    <path d="M22.5,21.5176715 C22.5,21.5176715 21.5003523,12.7587586 33.188771,13.8359213 C33.188771,13.8359213 34.3019537,0.909969465 48.7733293,0.909969465 C48.7733293,0.909969465 62.131522,0.909969465 64.9144789,14.9130839 C64.9144789,14.9130839 67.6974357,10.6044333 74.9331235,12.2201773 C82.1688112,13.8359213 82.1688112,20.2988972 82.1688112,21.9146411 L146.25,21.5176715" id="Path-3"></path>
                    <path d="M179.078879,21.9350835 C179.078879,21.9350835 178.439087,16.4086635 185.156902,17.0227102 C185.156902,17.0227102 185.796694,9.65415019 194.113988,9.65415019 C194.113988,9.65415019 201.791491,9.65415019 203.390971,17.6367568 C203.390971,17.6367568 204.990451,15.1805702 209.149098,16.1016402 C213.307746,17.0227102 213.307746,20.7069901 213.307746,21.6280601 L251.615176,21.5176715" id="Path-3" transform="translate(215.338838, 15.794617) scale(-1, 1) translate(-215.338838, -15.794617) "></path>
                    <path d="M151.081896,21 L165.081896,21" id="Line"></path>
                    <path d="M169.394396,21 L171.144396,21" id="Line"></path>
                    <path d="M256.081896,21 L270.081896,21" id="Line"></path>
                    <path d="M274.394396,21 L276.144396,21" id="Line"></path>
                    <path d="M282.394396,21 L298.144396,21" id="Line"></path>
                    <path d="M6.76939585,21 L22.5193959,21" id="Line"></path>
                    <path d="M0.644395851,21 L2.39439585,21" id="Line"></path>
                </g>
                <g id="Group-4" transform="translate(0.000000, 139.000000)" stroke="#979797" stroke-width="2" stroke-linecap="round" stroke-linejoin="round">
                    <path d="M22.5,21.5176715 C22.5,21.5176715 21.5003523,12.7587586 33.188771,13.8359213 C33.188771,13.8359213 34.3019537,0.909969465 48.7733293,0.909969465 C48.7733293,0.909969465 62.131522,0.909969465 64.9144789,14.9130839 C64.9144789,14.9130839 67.6974357,10.6044333 74.9331235,12.2201773 C82.1688112,13.8359213 82.1688112,20.2988972 82.1688112,21.9146411 L146.25,21.5176715" id="Path-3"></path>
                    <path d="M179.078879,21.9350835 C179.078879,21.9350835 178.439087,16.4086635 185.156902,17.0227102 C185.156902,17.0227102 185.796694,9.65415019 194.113988,9.65415019 C194.113988,9.65415019 201.791491,9.65415019 203.390971,17.6367568 C203.390971,17.6367568 204.990451,15.1805702 209.149098,16.1016402 C213.307746,17.0227102 213.307746,20.7069901 213.307746,21.6280601 L251.615176,21.5176715" id="Path-3" transform="translate(215.338838, 15.794617) scale(-1, 1) translate(-215.338838, -15.794617) "></path>
                    <path d="M151.081896,21 L165.081896,21" id="Line"></path>
                    <path d="M169.394396,21 L171.144396,21" id="Line"></path>
                    <path d="M256.081896,21 L270.081896,21" id="Line"></path>
                    <path d="M274.394396,21 L276.144396,21" id="Line"></path>
                    <path d="M282.394396,21 L298.144396,21" id="Line"></path>
                    <path d="M6.76939585,21 L22.5193959,21" id="Line"></path>
                    <path d="M0.644395851,21 L2.39439585,21" id="Line"></path>
                </g>
                <g id="Group" transform="translate(221.939550, 133.401608) rotate(165.000000) translate(-221.939550, -133.401608) translate(213.439550, 125.901608)" stroke="#3E486F" stroke-width="3" stroke-linecap="round">
                    <path d="M15.222532,0.360068466 L15.7869857,5.7304867" id="Line"></path>
                    <path d="M5.65860443,4.02534501 L9.34139557,7.97465499" id="Line"></path>
                    <path d="M0.921707417,13.5403432 L6.23966928,14.4780434" id="Line"></path>
                </g>
                <path d="M94.5,91.5 C94.5,91.5 89,98 92,106.5" id="Path-49" stroke="#3E486F" stroke-width="2" stroke-linecap="round" stroke-linejoin="round"></path>
                <path d="M93,109.14856 L93.5,110.64856" id="Path-50" stroke="#3E486F" stroke-width="2" stroke-linecap="round"></path>
            </g>
        </g>
    </g>
</svg>